<svg xmlns="http://www.w3.org/2000/svg" width="65" height="65" viewBox="0 0 65 65">
  <g id="icon_cda" data-name="icon cda" transform="translate(0.323 -0.485)">
    <g id="Rectángulo_129" data-name="Rectángulo 129" transform="translate(-0.323 0.485)" fill="#6ac6f3" stroke="#fff" stroke-width="1" opacity="0.5">
      <rect width="65" height="65" rx="10" stroke="none"/>
      <rect x="0.5" y="0.5" width="64" height="64" rx="9.5" fill="none"/>
    </g>
    <g id="Grupo_9596" data-name="Grupo 9596" transform="translate(191.002 -322.405)">
      <g id="Grupo_9594" data-name="Grupo 9594" transform="translate(-175.274 351.77)">
        <path id="Trazado_1775" data-name="Trazado 1775" d="M-169.94,371.969v-.009l-5.356.009Z" transform="translate(175.297 -351.065)" fill="#8ed1f2"/>
        <path id="Trazado_1776" data-name="Trazado 1776" d="M-146.3,360.733l-2.833-3.884-2.915-5.356H-165.86l-2.067,4.059-2.443,4.016-2.3,2.225V367l2.678,1.314v4.075l22.928-.04.282-4.316,1.6-1.032v-4.172Z" transform="translate(175.351 -351.492)" fill="#8ed1f2"/>
      </g>
      <g id="Grupo_9595" data-name="Grupo 9595" transform="translate(-176.383 338.167)">
        <path id="Trazado_1777" data-name="Trazado 1777" d="M-142.2,371.195c-1.168-.011-2.336,0-3.5,0-.174,0-.346,0-.566,0,0-.664.016-1.263-.006-1.86a.549.549,0,0,1,.359-.59,3.021,3.021,0,0,0,1.712-2.793c.015-.8-.048-1.6.014-2.388a3.953,3.953,0,0,0-1.464-3.628,2.283,2.283,0,0,1-.214-.245c.225-.2.447-.386.658-.586s.444-.429.654-.654a1.046,1.046,0,0,0,.044-1.523,1.025,1.025,0,0,0-1.516.062c-.323.312-.627.644-.98,1.012-.129-.244-.221-.41-.305-.58q-1.306-2.612-2.609-5.225a3.075,3.075,0,0,0-2.926-1.819q-5.886-.015-11.774,0a3.074,3.074,0,0,0-2.572,1.243,4.905,4.905,0,0,0-.461.8c-.923,1.837-1.839,3.677-2.776,5.553-.158-.15-.287-.271-.412-.393-.232-.228-.45-.47-.7-.68a1.012,1.012,0,0,0-1.41.023,1,1,0,0,0-.03,1.444c.442.463.936.875,1.456,1.354l-.49.417a3.6,3.6,0,0,0-1.27,3.075c.038.827.013,1.657.006,2.486a3.188,3.188,0,0,0,1.837,3.123.505.505,0,0,1,.245.35c.023.647.011,1.3.011,2.026-1.3,0-2.53,0-3.759,0-.95,0-1.456.371-1.439,1.051s.5,1.02,1.43,1.02q16.005,0,32.011,0c.243,0,.487.005.73,0a1.055,1.055,0,0,0,1.12-1.034A1.032,1.032,0,0,0-142.2,371.195Zm-26.091-12.857c.853-1.714,1.719-3.422,2.56-5.14a1.2,1.2,0,0,1,1.192-.737q5.814.015,11.628,0a1.115,1.115,0,0,1,1.115.623q1.348,2.7,2.692,5.4a1.094,1.094,0,0,1,.045.2h-19.353A2.949,2.949,0,0,1-168.287,358.338Zm3.311,12.819h-4.1v-2.024h4.1Zm10.361,0h-8.229v-2.034h8.229Zm6.228,0h-4.074V369.12h4.074Zm.863-4.135q-5.594,0-11.188,0h-11.139c-.98,0-1.323-.339-1.326-1.312,0-.926.014-1.852-.006-2.778a1.75,1.75,0,0,1,.468-1.176,2.684,2.684,0,0,1,2.391-1c6.7.045,13.392.026,20.089.016a1.282,1.282,0,0,1,.851.34,2.812,2.812,0,0,1,1.134,2.763,18.124,18.124,0,0,0-.015,1.9A1.094,1.094,0,0,1-147.524,367.02Z" transform="translate(176.383 -337.913)" fill="#fff"/>
        <path id="Trazado_1778" data-name="Trazado 1778" d="M-174.776,350.464c.112-.064.215-.144.323-.217l8.762-6.056q2.26-1.562,4.52-3.126a4.006,4.006,0,0,1,4.891,0q6.707,4.625,13.407,9.258a1.063,1.063,0,0,0,1.587-.142,1.043,1.043,0,0,0-.378-1.547q-6.839-4.732-13.688-9.451a5.932,5.932,0,0,0-3.461-1.02,6.211,6.211,0,0,0-3.524,1.168q-5.454,3.784-10.922,7.55c-.893.618-1.795,1.224-2.677,1.858a1.006,1.006,0,0,0-.261,1.422A1.048,1.048,0,0,0-174.776,350.464Z" transform="translate(176.383 -338.167)" fill="#fff"/>
        <path id="Trazado_1779" data-name="Trazado 1779" d="M-166.1,362.615c-.711-.036-1.426-.036-2.138,0a1.019,1.019,0,0,0-1.014,1.034,1.034,1.034,0,0,0,1.015,1.037c.338.027.68,0,1.02,0v0c.373,0,.747.027,1.118-.005a1.041,1.041,0,0,0,.994-1.059A1.023,1.023,0,0,0-166.1,362.615Z" transform="translate(176.532 -337.658)" fill="#fff"/>
        <path id="Trazado_1780" data-name="Trazado 1780" d="M-149.9,362.6c-.339-.021-.68,0-1.02,0s-.681-.018-1.02,0a1.02,1.02,0,0,0-1.038,1.055,1,1,0,0,0,1.02,1.022c.694.031,1.392.031,2.088,0a1,1,0,0,0,1.014-1.026A1.021,1.021,0,0,0-149.9,362.6Z" transform="translate(176.871 -337.657)" fill="#fff"/>
      </g>
    </g>
  </g>
</svg>
