<svg xmlns="http://www.w3.org/2000/svg" width="65" height="66" viewBox="0 0 65 66">
  <g id="icon_lavado" data-name="icon lavado" transform="translate(0.309 0)">
    <g id="Rectángulo_129" data-name="Rectángulo 129" transform="translate(-0.309 0)" fill="#6ac6f3" stroke="#fff" stroke-width="1" opacity="0.5">
      <rect width="65" height="66" rx="10" stroke="none"/>
      <rect x="0.5" y="0.5" width="64" height="65" rx="9.5" fill="none"/>
    </g>
    <g id="Grupo_9580" data-name="Grupo 9580" transform="translate(-426.469 -905.823)">
      <path id="Trazado_1743" data-name="Trazado 1743" d="M474.369,947.774H469.82c-.124,0-.246-.011-.366-.017v-2.894h4.319a15.521,15.521,0,0,0-14.444-16.38v-1.959h2.85v-1.9h-7.672v1.923h2.849v1.942a15.45,15.45,0,0,0-14.418,16.388h4.289v2.9h-.4q-2.259,0-4.517,0c-.126,0-.252.017-.379.027l0,5.767c.087,0,.171,0,.255,0h32.3c.087,0,.171,0,.256,0V947.8C474.621,947.792,474.5,947.774,474.369,947.774Z" transform="translate(0)" fill="#8ed1f2"/>
      <path id="Trazado_1744" data-name="Trazado 1744" d="M474.369,947.774H469.82c-.124,0-.246-.011-.366-.017v-2.894h4.319a15.521,15.521,0,0,0-14.444-16.38v-1.959h2.85v-1.9h-7.672v1.923h2.849v1.942a15.45,15.45,0,0,0-14.418,16.388h4.289v2.9h-.4q-2.259,0-4.517,0c-.126,0-.252.017-.379.027l0,5.767c.087,0,.171,0,.255,0h32.3c.087,0,.171,0,.256,0V947.8C474.621,947.792,474.5,947.774,474.369,947.774Zm-29.505-4.849c.487-4.219,2.157-7.788,5.783-10.123a13.453,13.453,0,0,1,14.594-.494c4.118,2.265,6.038,6.029,6.586,10.617Zm22.636,4.822H449.188v-2.854H467.5Zm5.313,3.863H443.881v-1.876h28.932Z" transform="translate(0)" fill="#fff"/>
    </g>
  </g>
</svg>
