<svg xmlns="http://www.w3.org/2000/svg" width="65" height="65" viewBox="0 0 65 65">
  <g id="icon_cda" data-name="icon cda" transform="translate(0.323 -0.485)">
    <g id="Rectángulo_129" data-name="Rectángulo 129" transform="translate(-0.323 0.485)" fill="#6ac6f3" stroke="#fff" stroke-width="1" opacity="0.5">
      <rect width="65" height="65" rx="10" stroke="none"/>
      <rect x="0.5" y="0.5" width="64" height="64" rx="9.5" fill="none"/>
    </g>
    <g id="Grupo_9582" data-name="Grupo 9582" transform="translate(-485.488 -890.238)">
      <path id="Trazado_1746" data-name="Trazado 1746" d="M531.833,919.32a13.81,13.81,0,0,0-10.369-12.136c-.808-.2-1.643-.292-2.465-.434h-1.894c-.406.055-.816.1-1.22.168a13.423,13.423,0,0,0-8.775,5.237,14.954,14.954,0,0,0-2.2,4.044l-.01.015v.011a12.361,12.361,0,0,0-.087,7.832,25.51,25.51,0,0,0,1.633,4l0,.024.027.036c.565,1.124,1.188,2.222,1.843,3.3a91.015,91.015,0,0,0,7.7,10.625c.134.162.269.323.445.538h-.486c-1.275,0-2.549,0-3.822,0-.513,0-.905.39-.778.819.072.238.315.425.48.635h12.382c.449-.3.6-.587.479-.946s-.388-.51-.939-.51h-3.752c-.1,0-.2-.009-.313-.015.015-.055.015-.082.028-.1.13-.16.263-.317.394-.477a85.394,85.394,0,0,0,8.26-11.612c.675-1.175,1.264-2.4,1.871-3.615a.728.728,0,0,0-.251-1.025,17.33,17.33,0,0,0,1.191-5,.741.741,0,0,0,.669-.841C531.874,919.706,531.85,919.514,531.833,919.32Z" transform="translate(0)" fill="#8ed1f2"/>
      <path id="Trazado_1747" data-name="Trazado 1747" d="M531.833,919.32a13.81,13.81,0,0,0-10.369-12.136c-.808-.2-1.643-.292-2.465-.434h-1.894c-.406.055-.816.1-1.22.168a13.425,13.425,0,0,0-8.775,5.237,12.745,12.745,0,0,0-2.3,11.9,32.441,32.441,0,0,0,3.508,7.365,91.015,91.015,0,0,0,7.7,10.625c.134.162.269.323.445.538h-.486c-1.275,0-2.549,0-3.822,0-.513,0-.905.39-.778.819.072.238.315.425.48.635h12.382c.449-.3.6-.587.479-.946s-.388-.51-.939-.51h-3.752c-.1,0-.2-.009-.313-.015.015-.055.015-.082.028-.1.13-.16.263-.317.394-.477a85.394,85.394,0,0,0,8.26-11.612c.675-1.175,1.264-2.4,1.871-3.615a.732.732,0,0,0-.42-1.115c-.367-.107-.679.073-.893.5-.543,1.07-1.053,2.158-1.644,3.2a82.089,82.089,0,0,1-8,11.351c-.405.495-.819.982-1.247,1.492-.085-.091-.144-.148-.2-.21a94.139,94.139,0,0,1-7.535-10.08,38.464,38.464,0,0,1-3.911-7.578,11.048,11.048,0,0,1-.511-6.187,12.323,12.323,0,0,1,13.272-9.861,11.973,11.973,0,0,1,9.381,5.761,12.1,12.1,0,0,1,1.86,5.939.725.725,0,0,0,.782.766.741.741,0,0,0,.669-.841C531.875,919.706,531.85,919.514,531.833,919.32Z" fill="#fff"/>
      <path id="Trazado_1748" data-name="Trazado 1748" d="M527.865,920.216A10.2,10.2,0,1,1,517.7,910,10.2,10.2,0,0,1,527.865,920.216Zm-1.457,0a8.74,8.74,0,1,0-8.737,8.723A8.738,8.738,0,0,0,526.407,920.217Z" transform="translate(0.388 0.388)" fill="#fff"/>
      <path id="Trazado_1749" data-name="Trazado 1749" d="M527.306,921.594a.7.7,0,0,1,.7-.729.726.726,0,0,1,.745.729.745.745,0,0,1-.726.72A.728.728,0,0,1,527.306,921.594Z" transform="translate(2.753 1.683)" fill="#fff"/>
      <path id="Trazado_1750" data-name="Trazado 1750" d="M518.041,913.987a23.3,23.3,0,0,0-2.869-.076c-.691-.009-.933.246-.933.947v9.352a2.677,2.677,0,0,0,.008.328.733.733,0,0,0,.744.657.723.723,0,0,0,.7-.7c.011-.169,0-.339,0-.509,0-.918,0-1.837,0-2.8.638,0,1.241.012,1.843,0a3.623,3.623,0,0,0,.5-7.2Zm-.4,5.735c-.628.038-1.259.007-1.915.007V915.37c.645,0,1.263-.027,1.878.006a2.215,2.215,0,0,1,2.027,2.186A2.144,2.144,0,0,1,517.637,919.722Z" transform="translate(1.195 0.853)" fill="#fff"/>
    </g>
  </g>
</svg>
