<svg xmlns="http://www.w3.org/2000/svg" width="65" height="66" viewBox="0 0 65 66">
  <g id="icon_parqueaderos" data-name="icon parqueaderos" transform="translate(0.221 0)">
    <g id="Rectángulo_127" data-name="Rectángulo 127" transform="translate(-0.221 0)" fill="#7ac6eb" stroke="#fff" stroke-width="1" opacity="0.5">
      <rect width="65" height="66" rx="10" stroke="none"/>
      <rect x="0.5" y="0.5" width="64" height="65" rx="9.5" fill="none"/>
    </g>
    <g id="Grupo_239" data-name="Grupo 239" transform="translate(15.426 13.559)">
      <g id="Grupo_9578" data-name="Grupo 9578" transform="translate(583.372 -782.442)">
        <path id="Trazado_1732" data-name="Trazado 1732" d="M-543.635,801.9l-1.611-1.334-3.786.277-2-4.049-2.407-2.089h-18.336l-1.625.441-1.856,2.576-1.509,2.727h-3.051l-2.345.734-.58,1.979h3.482l-.928,1.169-1.219,1.8v2.657l.6,4.7.987,2.088,1.173.482v2.727l.642,1.277h2.223l1.161-.654.058-.8v-2.553l22.573-.116.348,3.465.842.654h2.2l1.2-.348v-3.366l1.452-.773.464-2.293.928-6-.682-2.02-1.407-.935-1.4-1.169h4.42Z" transform="translate(-3.462 -5.748)" fill="#8ed1f2"/>
        <g id="Grupo_9577" data-name="Grupo 9577" transform="translate(-586.65 788.217)">
          <path id="Trazado_1733" data-name="Trazado 1733" d="M-549.331,794.248c-.893-.019-1.787-.019-2.68-.007a.506.506,0,0,1-.532-.308,22.623,22.623,0,0,0-1.122-2.049,20.745,20.745,0,0,0-1.8-2.459,3.632,3.632,0,0,0-2.807-1.208q-8.168,0-16.336,0a3.955,3.955,0,0,0-2.1.607,6.647,6.647,0,0,0-2.291,2.574c-.474.855-.958,1.7-1.424,2.563a.484.484,0,0,1-.5.3c-.964-.014-1.929-.025-2.892,0a2.657,2.657,0,0,0-2.693,2.2c-.055.234-.1.471-.135.709-.091.654.151.923.814.922h1.746c-.169.18-.286.3-.395.422a3.788,3.788,0,0,0-.969,3.063c.288,2.348.636,4.69.879,7.042a2.476,2.476,0,0,0,1.9,2.428v1.193c0,.4-.007.794,0,1.191a1.391,1.391,0,0,0,1.4,1.416c.85.016,1.7.018,2.552,0a1.409,1.409,0,0,0,1.409-1.452c.008-.61,0-1.219,0-1.829v-.517h21.612c0,.759,0,1.493,0,2.228a1.442,1.442,0,0,0,1.589,1.575q1.106,0,2.212,0a1.42,1.42,0,0,0,1.558-1.557c0-.749,0-1.5,0-2.248.158-.059.293-.1.422-.158a2.175,2.175,0,0,0,1.369-1.8c.3-2.275.565-4.555.909-6.824a4.278,4.278,0,0,0-.824-3.637c-.142-.168-.3-.323-.491-.524.162-.012.269-.025.376-.026.525,0,1.05.009,1.574-.011a.6.6,0,0,0,.66-.622A2.883,2.883,0,0,0-549.331,794.248Zm-27.82-3.418a3.25,3.25,0,0,1,2.962-1.435q7.826.045,15.653,0a3.145,3.145,0,0,1,2.477,1.091,4.611,4.611,0,0,1,.609.762c1.151,2.014,2.285,4.037,3.478,6.152-1,0-1.876.01-2.753-.014-.1,0-.245-.191-.273-.315a4,4,0,0,0-5.928-2.639,3.845,3.845,0,0,0-1.89,2.6c-.059.273-.134.373-.425.373q-8.72-.013-17.44-.007c-.079,0-.159-.008-.352-.018C-579.719,795.152-578.5,792.952-577.151,790.83Zm20.956,6.56H-561.6c-.068-1,1.13-2.167,2.335-2.284A2.746,2.746,0,0,1-556.195,797.39Zm-29.111-.525a1.413,1.413,0,0,1,1.493-1.419c.155-.011.311-.013.467-.013.664,0,1.329,0,2.089,0-.269.476-.488.883-.729,1.277a.372.372,0,0,1-.27.149C-583.272,796.869-584.289,796.865-585.306,796.865Zm6.8,16.533c0,.088-.2.24-.314.243q-1.168.032-2.338,0c-.1,0-.291-.165-.294-.258-.024-.775-.014-1.55-.014-2.346h2.974C-578.49,811.824-578.48,812.612-578.5,813.4Zm26.972,0c0,.087-.2.237-.312.24-.765.021-1.531.009-2.3.012-.249,0-.358-.106-.355-.36.007-.737,0-1.473,0-2.259h2.975C-551.518,811.827-551.508,812.615-551.533,813.4Zm2.805-11.964c-.334,2.456-.658,4.912-.986,7.369a1.043,1.043,0,0,1-1.21,1.018q-7.569,0-15.139,0h-15.9c-.977,0-1.26-.281-1.38-1.263-.287-2.347-.594-4.692-.894-7.038a2.675,2.675,0,0,1,.887-2.45,1.848,1.848,0,0,1,1.281-.486c10.291,0,20.582.02,30.872-.008A2.545,2.545,0,0,1-548.727,801.438Zm.387-4.565c-.763,0-1.526.015-2.287-.012a.656.656,0,0,1-.449-.267c-.229-.348-.406-.731-.617-1.126.946,0,1.848-.057,2.74.017.8.067,1.176.521,1.316,1.388Z" transform="translate(586.65 -788.217)" fill="#fff"/>
          <path id="Trazado_1734" data-name="Trazado 1734" d="M-482.776,905.59h7.612q3.827,0,7.655,0c.72,0,.94-.312.71-1-.143-.43-.286-.859-.438-1.286a3,3,0,0,0-2.879-2.05q-5.061-.005-10.121,0a2.982,2.982,0,0,0-2.893,2.086c-.136.4-.261.808-.391,1.212C-483.763,905.3-483.556,905.589-482.776,905.59Zm2.88-3.163q4.737.071,9.475,0a2.075,2.075,0,0,1,2.25,1.951h-14A2.062,2.062,0,0,1-479.9,902.427Z" transform="translate(495.325 -888.406)" fill="#fff"/>
          <path id="Trazado_1735" data-name="Trazado 1735" d="M-477.66,947.6a1.982,1.982,0,0,0-.382-.011h-18.846c-.141,0-.327-.043-.415.029a1.224,1.224,0,0,0-.438.546c-.078.293.132.51.424.59a1.627,1.627,0,0,0,.422.024h18.8a2.35,2.35,0,0,0,.424-.011.561.561,0,0,0,.513-.581A.561.561,0,0,0-477.66,947.6Z" transform="translate(507.858 -929.463)" fill="#fff"/>
          <path id="Trazado_1736" data-name="Trazado 1736" d="M-309.829,908.172a2.293,2.293,0,0,0-2.274,2.28,2.26,2.26,0,0,0,2.274,2.3,2.291,2.291,0,0,0,2.308-2.285A2.318,2.318,0,0,0-309.829,908.172Zm.019,3.4a1.078,1.078,0,0,1-1.1-1.1,1.1,1.1,0,0,1,1.106-1.1,1.115,1.115,0,0,1,1.091,1.085A1.1,1.1,0,0,1-309.81,911.568Z" transform="translate(343.301 -894.541)" fill="#fff"/>
          <path id="Trazado_1737" data-name="Trazado 1737" d="M-544.393,908.175a2.31,2.31,0,0,0-2.282,2.279,2.276,2.276,0,0,0,2.282,2.306,2.27,2.27,0,0,0,2.3-2.285A2.3,2.3,0,0,0-544.393,908.175Zm0,3.4a1.094,1.094,0,0,1-1.1-1.112,1.118,1.118,0,0,1,1.088-1.089,1.1,1.1,0,0,1,1.11,1.1A1.082,1.082,0,0,1-544.39,911.57Z" transform="translate(551.218 -894.543)" fill="#fff"/>
        </g>
      </g>
    </g>
  </g>
</svg>
