<svg xmlns="http://www.w3.org/2000/svg" width="64.691" height="65.912" viewBox="0 0 64.691 65.912">
  <g id="icon_cda" data-name="icon cda" transform="translate(0 0)">
    <g id="Trazado_1708" data-name="Trazado 1708" transform="translate(0 0)" fill="#6ac6f3" opacity="0.5">
      <path d="M 52.48546981811523 65.41209411621094 L 12.20592975616455 65.41209411621094 C 9.079159736633301 65.41209411621094 6.139549255371094 64.19446563720703 3.928589344024658 61.98350524902344 C 1.717629313468933 59.77253723144531 0.4999993145465851 56.83291625976562 0.4999993145465851 53.70614624023438 L 0.4999993145465851 12.20594692230225 C 0.4999993145465851 9.079176902770996 1.717629313468933 6.139556884765625 3.928589344024658 3.928586959838867 C 6.139549255371094 1.717627048492432 9.079159736633301 0.4999970495700836 12.20592975616455 0.4999970495700836 L 52.48546981811523 0.4999970495700836 C 55.61223983764648 0.4999970495700836 58.55184936523438 1.717627048492432 60.76280975341797 3.928586959838867 C 62.97377014160156 6.139556884765625 64.19139862060547 9.079176902770996 64.19139862060547 12.20594692230225 L 64.19139862060547 53.70614624023438 C 64.19139862060547 56.83291625976562 62.97377014160156 59.77253723144531 60.76280975341797 61.98350524902344 C 58.55184936523438 64.19446563720703 55.61223983764648 65.41209411621094 52.48546981811523 65.41209411621094 Z" stroke="none"/>
      <path d="M 12.20592880249023 1 C 9.212718963623047 1 6.398658752441406 2.165618896484375 4.282138824462891 4.282146453857422 C 2.165618896484375 6.398666381835938 1 9.212726593017578 1 12.20594787597656 L 1 53.70614624023438 C 1 56.69936752319336 2.165618896484375 59.513427734375 4.282138824462891 61.62994766235352 C 6.398658752441406 63.74647521972656 9.212718963623047 64.91209411621094 12.20592880249023 64.91209411621094 L 52.48546981811523 64.91209411621094 C 55.47867965698242 64.91209411621094 58.29273986816406 63.74647521972656 60.40925979614258 61.62994766235352 C 62.52577972412109 59.513427734375 63.69139862060547 56.69936752319336 63.69139862060547 53.70614624023438 L 63.69139862060547 12.20594787597656 C 63.69139862060547 9.212726593017578 62.52577972412109 6.398666381835938 60.40925979614258 4.282146453857422 C 58.29273986816406 2.165618896484375 55.47867965698242 1 52.48546981811523 1 L 12.20592880249023 1 M 12.20592880249023 0 L 52.48546981811523 0 C 59.22661972045898 0 64.69139862060547 5.464786529541016 64.69139862060547 12.20594787597656 L 64.69139862060547 53.70614624023438 C 64.69139862060547 60.44730758666992 59.22661972045898 65.91209411621094 52.48546981811523 65.91209411621094 L 12.20592880249023 65.91209411621094 C 5.464778900146484 65.91209411621094 0 60.44730758666992 0 53.70614624023438 L 0 12.20594787597656 C 0 5.464786529541016 5.464778900146484 0 12.20592880249023 0 Z" stroke="none" fill="#fff"/>
    </g>
    <g id="Grupo_9581" data-name="Grupo 9581" transform="translate(-520.154 -955.321)">
      <path id="Trazado_1745" data-name="Trazado 1745" d="M567.641,991.855l-1.807-1.033a12.538,12.538,0,0,0,0-3.925l1.807-1.033a3.725,3.725,0,0,0,1.746-2.272,3.764,3.764,0,0,0-.375-2.847l-1.217-2.1a3.766,3.766,0,0,0-5.114-1.308l-1.807,1.047a13.14,13.14,0,0,0-3.414-1.989v-2.158a3.752,3.752,0,0,0-3.741-3.7h-2.433a3.744,3.744,0,0,0-3.741,3.742V976.3a13.113,13.113,0,0,0-3.414,1.989l-1.805-1.047a3.739,3.739,0,0,0-5.115,1.3L536,980.722a3.765,3.765,0,0,0,1.308,5.115l1.805,1.03a12.446,12.446,0,0,0,0,3.925l-1.805,1.036A3.748,3.748,0,0,0,536,996.942l1.214,2.1a3.767,3.767,0,0,0,5.115,1.375l1.8-1.047a13.163,13.163,0,0,0,3.414,1.989v2.066a3.749,3.749,0,0,0,3.742,3.729h2.433a3.747,3.747,0,0,0,3.741-3.742v-2.025a13.185,13.185,0,0,0,3.414-1.989l1.807,1.047.008.005a3.741,3.741,0,0,0,5.105-1.38l1.219-2.1A3.784,3.784,0,0,0,567.641,991.855Z" transform="translate(0 0)" fill="#8ed1f2"/>
      <g id="configuracion" transform="translate(535.48 970.531)">
        <g id="Outlined_UI_settings" data-name="Outlined UI settings">
          <path id="Style" d="M551.287,1007.159a3.749,3.749,0,0,1-3.742-3.729v-2.066a13.163,13.163,0,0,1-3.414-1.989l-1.8,1.047a3.767,3.767,0,0,1-5.115-1.375l-1.214-2.1a3.748,3.748,0,0,1,1.308-5.114l1.805-1.036a12.544,12.544,0,0,1,0-3.925l-1.805-1.03A3.765,3.765,0,0,1,536,980.722l1.216-2.177a3.739,3.739,0,0,1,5.115-1.3l1.805,1.047a13.113,13.113,0,0,1,3.414-1.989v-2.026a3.744,3.744,0,0,1,3.741-3.742h2.433a3.752,3.752,0,0,1,3.741,3.7v2.158a13.14,13.14,0,0,1,3.414,1.989l1.807-1.047a3.766,3.766,0,0,1,5.114,1.308l1.217,2.1a3.764,3.764,0,0,1,.375,2.847,3.725,3.725,0,0,1-1.746,2.272l-1.807,1.033a12.538,12.538,0,0,1,0,3.925l1.807,1.033a3.784,3.784,0,0,1,1.373,5.115l-1.219,2.1a3.741,3.741,0,0,1-5.105,1.38l-.008-.005-1.807-1.047a13.185,13.185,0,0,1-3.414,1.989v2.025a3.747,3.747,0,0,1-3.741,3.742ZM544.459,996.2h0l.7.64a10.937,10.937,0,0,0,4.082,2.381l.914.288v3.925a1.128,1.128,0,0,0,1.125,1.125h2.5a1.129,1.129,0,0,0,1.125-1.125V999.5l.914-.288a10.965,10.965,0,0,0,4.082-2.381l.707-.641,3.441,1.989a1.127,1.127,0,0,0,1.53-.419l1.152-2.106a1.127,1.127,0,0,0-.353-1.552l-.052-.03-3.362-1.936.2-.943a10.613,10.613,0,0,0,.275-2.354,11.228,11.228,0,0,0-.261-2.354l-.209-.941,3.362-1.937a1.123,1.123,0,0,0,.427-1.531l-.022-.038-1.216-2.107a1.107,1.107,0,0,0-.68-.524,1.132,1.132,0,0,0-.851.105l-3.439,2-.707-.641a10.9,10.9,0,0,0-4.082-2.381l-.916-.288v-3.923a1.125,1.125,0,0,0-1.123-1.125h-2.435a1.124,1.124,0,0,0-1.127,1.124.164.164,0,0,0,0,.028v3.923l-.914.288a10.892,10.892,0,0,0-4.082,2.381l-.707.64-3.439-1.988a1.123,1.123,0,0,0-1.531.419l-1.217,2.106a1.124,1.124,0,0,0,.4,1.539l.007.005,3.426,1.9-.2.943a10.411,10.411,0,0,0-.275,2.354,11.145,11.145,0,0,0,.261,2.354l.209.943-3.428,1.976a1.122,1.122,0,0,0-.44,1.526l.034.057,1.217,2.106a1.111,1.111,0,0,0,.68.524,1.149,1.149,0,0,0,.851-.105l3.439-1.989Zm2.813-7.352a5.233,5.233,0,1,1,5.233,5.233h0A5.237,5.237,0,0,1,547.272,988.844Zm2.615,0a2.617,2.617,0,1,0,2.619-2.616h0A2.617,2.617,0,0,0,549.887,988.844Z" transform="translate(-535.48 -970.531)" fill="#fff"/>
        </g>
      </g>
    </g>
  </g>
</svg>
