<svg xmlns="http://www.w3.org/2000/svg" width="29.718" height="18.845" viewBox="0 0 29.718 18.845">
  <g id="Grupo_9575" data-name="Grupo 9575" transform="translate(137.807 -864.214)">
    <path id="Trazado_1724" data-name="Trazado 1724" d="M-122.965,882.886h-13.387a1.353,1.353,0,0,1-1.425-1.079,1.345,1.345,0,0,1,1.22-1.618c.073,0,.147,0,.22,0h26.742a1.35,1.35,0,0,1,1.47,1.371,1.344,1.344,0,0,1-1.3,1.326c-.1.007-.21,0-.315,0Z" transform="translate(0 -7.901)" fill="#fff"/>
    <path id="Trazado_1725" data-name="Trazado 1725" d="M-122.928,898.861q-6.709,0-13.419,0a1.341,1.341,0,0,1-1.325-1.8,1.322,1.322,0,0,1,1.19-.889,1.806,1.806,0,0,1,.189,0q13.34,0,26.68,0a1.361,1.361,0,0,1,1.442,1.021,1.341,1.341,0,0,1-1.213,1.673c-.115.008-.231,0-.346,0Z" transform="translate(-0.023 -15.803)" fill="#fff"/>
    <path id="Trazado_1726" data-name="Trazado 1726" d="M-122.779,864.215q6.693,0,13.387,0a1.328,1.328,0,0,1,1.34,1.717,1.27,1.27,0,0,1-1.072.942,3.076,3.076,0,0,1-.5.032q-13.2,0-26.4,0a2.35,2.35,0,0,1-.652-.076,1.332,1.332,0,0,1-.917-1.5,1.329,1.329,0,0,1,1.3-1.111c2.005-.007,4.011,0,6.016,0Z" transform="translate(-0.098 0)" fill="#fff"/>
  </g>
</svg>
